<svg id="icons" enable-background="new 0 0 64 64" height="512" viewBox="0 0 64 64" width="512" xmlns="http://www.w3.org/2000/svg"><path d="m58 13.488c-1.654 0-3 1.346-3 3s1.346 3 3 3 3-1.346 3-3-1.346-3-3-3zm0 4c-.552 0-1-.449-1-1s.448-1 1-1 1 .449 1 1-.448 1-1 1z"/><path d="m1 53.512h62c.553 0 1-.447 1-1v-10.005c0-.553-.447-1-1-1h-35.831l32.662-19.019h3.169c.553 0 1-.448 1-1v-10c0-.552-.447-1-1-1h-62c-.553 0-1 .448-1 1v10c0 .552.447 1 1 1h34.971l-32.662 19.019h-2.309c-.553 0-1 .447-1 1v10.005c0 .552.447 1 1 1zm1-41.024h3.001c.001.551.447.997.999.997s.998-.446.999-.997h2.001v.998c0 .552.447 1 1 1s1-.448 1-1v-.998h2.001c.001.551.447.997.999.997s.998-.446.999-.997h2.001v.998c0 .552.447 1 1 1s1-.448 1-1v-.998h2.001c.001.551.447.997.999.997s.998-.446.999-.997h2.001v.998c0 .552.447 1 1 1s1-.448 1-1v-.998h2.001c.001.551.447.997.999.997s.998-.446.999-.997h2.001v.998c0 .552.447 1 1 1s1-.448 1-1v-.998h2.001c.001.551.447.997.999.997s.998-.446.999-.997h2.001v.998c0 .552.447 1 1 1s1-.448 1-1v-.998h2.001c.001.551.447.997.999.997s.998-.446.999-.997h2.001v.998c0 .552.447 1 1 1s1-.448 1-1v-.998h11v8h-60zm37.945 10h15.912l-32.663 19.019h-15.911zm-37.945 21.019h1.552c.007 0 .015.003.022.003s.015-.003.022-.003h9.411c.002.552.448.998 1 .998s.998-.446 1-.998h2v.999c0 .553.447 1 1 1s1-.447 1-1v-.999h2c.002.552.448.998 1 .998s.998-.446 1-.998h2v.999c0 .553.447 1 1 1s1-.447 1-1v-.999h2c.002.552.448.998 1 .998s.998-.446 1-.998h2v.999c0 .553.447 1 1 1s1-.447 1-1v-.999h2c.002.552.448.998 1 .998s.998-.446 1-.998h2v.999c0 .553.447 1 1 1s1-.447 1-1v-.999h2c.002.552.448.998 1 .998s.998-.446 1-.998h2v.999c0 .553.447 1 1 1s1-.447 1-1v-.999h2c.002.552.448.998 1 .998s.998-.446 1-.998h2v.999c0 .553.447 1 1 1s1-.447 1-1v-.999h2.993v8.005h-60z"/><path d="m6 44.509c-1.654 0-3 1.347-3 3.001s1.346 3.001 3 3.001 3-1.347 3-3.001-1.346-3.001-3-3.001zm0 4.002c-.552 0-1-.449-1-1.001s.448-1.001 1-1.001 1 .449 1 1.001-.448 1.001-1 1.001z"/></svg>