<svg id="icons" enable-background="new 0 0 64 64" height="512" viewBox="0 0 64 64" width="512" xmlns="http://www.w3.org/2000/svg"><path d="m17 21c-6.065 0-11 4.935-11 11s4.935 11 11 11 11-4.935 11-11-4.935-11-11-11zm0 20c-4.963 0-9-4.037-9-9 0-4.962 4.037-9 9-9s9 4.038 9 9c0 4.963-4.037 9-9 9z"/><path d="m17 27c-2.757 0-5 2.243-5 5s2.243 5 5 5 5-2.243 5-5-2.243-5-5-5zm0 8c-1.654 0-3-1.346-3-3s1.346-3 3-3 3 1.346 3 3-1.346 3-3 3z"/><path d="m28 40c-1.654 0-3 1.346-3 3s1.346 3 3 3 3-1.346 3-3-1.346-3-3-3zm0 4c-.552 0-1-.448-1-1s.448-1 1-1 1 .448 1 1-.448 1-1 1z"/><path d="m63 40.997h-26v-1.995c0-.553-.447-1-1-1h-2v-6.002c0-1.303-.161-2.567-.439-3.786l.662-.383c.001-.001.002-.002.003-.003 1.429-.827 1.92-2.663 1.095-4.094-.001 0-.001-.001-.001-.002l-2-3.465c-.828-1.432-2.665-1.926-4.098-1.099-.001 0-.001 0-.001 0l-.674.39c-3.035-2.818-7.087-4.558-11.547-4.558-4.669 0-8.902 1.894-11.979 4.951-.014.012-.031.016-.044.029s-.018.031-.029.045c-1.542 1.552-2.786 3.399-3.642 5.449-.003.008-.01.013-.014.021-.005.012-.003.025-.007.037-.824 1.995-1.285 4.178-1.285 6.468v.001s0 0 0 0c0 2.289.461 4.468 1.284 6.462.006.015.003.029.009.043.005.012.014.02.019.03.854 2.044 2.097 3.887 3.636 5.436.014.015.018.034.032.049s.034.019.049.032c3.075 3.055 7.305 4.947 11.971 4.947h16 3c.553 0 1-.447 1-1v-2.003h25v2.001c0 .553.447 1 1 1s1-.447 1-1v-6.001c0-.553-.447-1-1-1zm-28-.995v6.998h-1v-6.998zm-3.413-18.734 2 3.465c.275.478.112 1.089-.363 1.365h-.001l-.248.143c-.692-1.915-1.707-3.673-2.998-5.2l.243-.141c.477-.273 1.092-.109 1.367.368zm-24.457 22c.352-.394.347-.993-.031-1.37-.378-.375-.976-.38-1.367-.029-.854-.975-1.582-2.06-2.164-3.232.478-.228.704-.786.499-1.28-.207-.495-.765-.728-1.262-.549-.412-1.211-.667-2.49-.755-3.816.528-.028.951-.457.95-.991s-.423-.961-.95-.989c.088-1.327.343-2.606.755-3.817.111.04.225.067.338.067.393 0 .765-.233.924-.618.204-.494-.021-1.05-.499-1.278.582-1.173 1.31-2.258 2.165-3.233.189.17.424.263.662.263.257 0 .513-.098.708-.294.376-.377.38-.976.028-1.368 2.64-2.318 6.089-3.734 9.869-3.734 8.271 0 15 6.729 15 15v15h-15c-3.781 0-7.229-1.417-9.87-3.732zm29.87.729v-1h25v1z"/></svg>