<svg id="icons" enable-background="new 0 0 64 64" height="512" viewBox="0 0 64 64" width="512" xmlns="http://www.w3.org/2000/svg"><path d="m61 11.498h-28.014c-.003 0-.005.002-.008.002-1.645.009-2.98 1.346-2.983 2.992v.002l-.005 3v.001.001c0 1.654-1.346 3-3 3h-21.99c-2.757 0-5 2.243-5 5s2.243 5 5 5h21.99c1.654 0 3 1.346 3 3v.001l.004 2.998v.001c.001 1.62 1.297 2.936 2.905 2.986.03.003.056.018.086.018h21.015v5.994c0 .553.447 1 1 1s1-.447 1-1v-5.994h1v2.996c0 .553.447 1 1 1s1-.447 1-1v-2.996h1v12.002c0 .553.447 1 1 1s1-.447 1-1v-12.187c1.161-.414 2-1.514 2-2.815v-22.002c0-1.654-1.346-3-3-3zm-7.001 26.002h-9.003v-4.002h2.989c.553 0 1-.447 1-1s-.447-1-1-1h-2.989v-5h2.989c.553 0 1-.447 1-1s-.447-1-1-1h-2.989v-5.002h2.989c.553 0 1-.447 1-1s-.447-1-1-1h-2.989v-3.998h9.003zm-11.003-19.038c0 .013-.007.022-.007.034s.007.021.007.034v6.934c0 .013-.007.022-.007.034s.007.021.007.034v6.932c0 .013-.007.022-.007.034s.007.021.007.034v4.968h-6v-24.002h6zm-16.006 10.034h-21.99c-1.654 0-3-1.346-3-3s1.346-3 3-3h21.99c2.756 0 4.997-2.241 5-4.996 0-.001 0-.001 0-.002l.005-3v-.001-.001c0-.551.448-.998.999-.998h2.002v24.002h-1.964c-.014-.001-.025-.008-.039-.008-.551 0-.999-.447-.999-.998 0-.001 0-.001 0-.001l-.004-2.998v-.001c-.001-2.756-2.244-4.998-5-4.998zm34.01 9.004h-5.001v-24.002h5.001c.552 0 1 .448 1 1v22.002c0 .552-.448 1-1 1z"/><path d="m40 35.494c.553 0 1-.447 1-1v-17.992c0-.553-.447-1-1-1s-1 .447-1 1v17.992c0 .553.447 1 1 1z"/><path d="m5.027 24.5h-.01c-.552 0-.994.447-.994 1s.452 1 1.005 1c.552 0 1-.447 1-1s-.449-1-1.001-1z"/><path d="m23 24.5h-13.999c-.553 0-1 .447-1 1s.447 1 1 1h13.999c.553 0 1-.447 1-1s-.447-1-1-1z"/></svg>