<svg xmlns="http://www.w3.org/2000/svg" version="1.0" width="2667.000000" height="844.000000" preserveAspectRatio="xMidYMid meet"><rect id="backgroundrect" width="100%" height="100%" x="0" y="0" fill="none" stroke="none"/>
<metadata>
Created by potrace 1.16, written by Peter Selinger 2001-2019
</metadata>

<g class="currentLayer" style=""><title>Layer 1</title><g transform="translate(0,844) scale(0.10000000149011612,-0.10000000149011612) " fill="#ffffff" stroke="#ffffff" id="svg_1" class="selected" stroke-opacity="1" fill-opacity="1">
<path d="M4280 6749 c-189 -17 -433 -75 -612 -145 -91 -36 -288 -130 -288 -138 0 -2 34 -25 75 -51 105 -65 179 -135 193 -182 23 -79 53 -265 77 -481 14 -123 25 -230 25 -239 0 -14 14 -15 118 -10 64 3 129 11 144 17 40 19 57 66 74 198 27 220 46 332 70 420 13 48 40 156 59 239 39 173 58 221 81 203 9 -9 12 -24 8 -49 -7 -44 24 -91 61 -91 28 0 38 15 55 90 7 30 21 72 31 95 9 22 20 61 24 88 l7 47 -53 -1 c-30 -1 -97 -6 -149 -10z" id="svg_2" stroke="#ffffff" stroke-opacity="1" fill="#ffffff" fill-opacity="1"/>
<path d="M4534 6746 c-11 -29 0 -324 13 -337 18 -18 53 16 53 53 0 42 13 34 35 -24 14 -36 30 -59 52 -73 20 -12 37 -33 43 -55 6 -19 18 -145 26 -280 18 -311 38 -474 61 -509 13 -19 17 -45 16 -101 -1 -41 0 -82 3 -91 5 -19 42 -35 99 -44 67 -11 105 -26 105 -41 0 -17 -94 -64 -130 -64 -54 -1 -85 -54 -96 -163 l-7 -66 34 -5 c19 -3 158 -7 310 -9 l276 -5 7 61 c17 168 5 204 -83 236 -34 12 -61 24 -61 27 0 3 24 16 54 29 76 34 78 41 70 319 -9 322 15 612 67 811 12 44 22 86 23 94 2 27 -281 137 -475 185 -111 27 -271 51 -407 61 -68 5 -83 4 -88 -9z" id="svg_3" stroke="#ffffff" stroke-opacity="1" fill="#ffffff" fill-opacity="1"/>
<path d="M4300 6371 c-5 -11 -13 -84 -16 -163 -5 -117 -3 -146 9 -162 14 -19 15 -19 33 8 36 57 58 248 34 310 -11 31 -45 35 -60 7z" id="svg_4" stroke="#ffffff" stroke-opacity="1" fill="#ffffff" fill-opacity="1"/>
<path d="M7130 5030 l0 -1130 313 2 312 3 3 873 2 873 513 -3 c502 -4 513 -4 580 -26 88 -30 136 -76 162 -158 18 -55 19 -107 23 -811 l3 -753 305 0 304 0 0 899 c0 555 -4 919 -10 952 -33 181 -176 323 -375 374 -123 31 -238 35 -1182 35 l-953 0 0 -1130z" id="svg_5" stroke="#ffffff" stroke-opacity="1" fill="#ffffff" fill-opacity="1"/>
<path d="M14190 6153 c0 -5 141 -388 314 -853 l313 -845 -290 -3 c-160 -1 -291 -1 -293 1 -2 2 50 184 116 404 66 221 120 407 120 412 0 8 -92 11 -289 11 l-289 0 -11 -32 c-101 -321 -411 -1341 -408 -1344 2 -2 488 -3 1079 -2 l1076 3 -398 1125 -398 1125 -321 3 c-177 1 -321 -1 -321 -5z" id="svg_6" stroke="#ffffff" stroke-opacity="1" fill="#ffffff" fill-opacity="1"/>
<path d="M15312 6151 c2 -4 122 -328 267 -720 l264 -711 308 0 308 0 -39 113 c-100 290 -460 1310 -465 1318 -8 12 -648 12 -643 0z" id="svg_7" stroke="#ffffff" stroke-opacity="1" fill="#ffffff" fill-opacity="1"/>
<path d="M16985 6143 c-5 -14 -519 -1517 -781 -2286 l-33 -97 297 2 296 3 273 800 c150 440 333 979 407 1198 l135 397 -293 0 c-271 0 -294 -1 -301 -17z" id="svg_8" stroke="#ffffff" stroke-opacity="1" fill="#ffffff" fill-opacity="1"/>
<path d="M18050 6153 c0 -5 141 -388 313 -853 l313 -845 -289 -3 c-160 -1 -292 -1 -294 1 -2 2 51 185 117 406 66 222 120 407 120 412 0 5 -125 9 -289 9 l-290 0 -35 -112 c-122 -395 -377 -1223 -382 -1243 l-6 -25 1077 0 1077 0 -4 23 c-4 17 -758 2155 -783 2220 -7 16 -32 17 -326 17 -175 0 -319 -3 -319 -7z" id="svg_9" stroke="#ffffff" stroke-opacity="1" fill="#ffffff" fill-opacity="1"/>
<path d="M19595 6148 c-3 -7 -4 -515 -3 -1128 l3 -1115 310 0 310 0 3 873 2 872 478 0 c506 -1 587 -7 669 -48 53 -28 88 -71 110 -135 16 -47 18 -121 21 -809 l3 -758 304 0 305 0 0 905 c0 626 -3 920 -11 957 -46 218 -227 356 -512 387 -147 17 -1986 15 -1992 -1z" id="svg_10" stroke="#ffffff" stroke-opacity="1" fill="#ffffff" fill-opacity="1"/>
<path d="M22970 6153 c0 -5 141 -388 313 -853 l313 -845 -289 -3 c-160 -1 -292 -1 -294 1 -1 2 51 185 117 406 66 221 120 406 120 411 0 6 -109 10 -290 10 l-289 0 -32 -102 c-17 -57 -110 -357 -205 -667 -96 -311 -177 -575 -180 -588 l-6 -23 1076 0 c855 0 1076 3 1076 13 0 10 -751 2145 -781 2220 l-11 27 -319 0 c-176 0 -319 -3 -319 -7z" id="svg_11" stroke="#ffffff" stroke-opacity="1" fill="#ffffff" fill-opacity="1"/>
<path d="M9780 5253 c0 -977 0 -970 56 -1074 72 -132 227 -226 424 -258 41 -7 307 -11 713 -11 l647 0 0 1120 0 1120 -310 0 -310 0 0 -872 0 -871 -172 6 c-271 10 -357 45 -405 167 -17 42 -18 103 -21 808 l-3 762 -309 0 -310 0 0 -897z" id="svg_12" stroke="#ffffff" stroke-opacity="1" fill="#ffffff" fill-opacity="1"/>
<path d="M11730 5902 l0 -251 393 -3 c339 -4 399 -7 445 -22 73 -24 111 -60 127 -123 22 -86 -4 -156 -69 -187 -64 -30 -145 -36 -523 -36 l-373 0 0 -250 0 -250 355 0 c330 0 358 -1 408 -20 115 -43 188 -146 207 -290 5 -41 10 -186 10 -322 l0 -248 296 0 296 0 -4 348 c-5 315 -7 354 -27 426 -11 44 -32 98 -45 121 -29 49 -133 149 -199 190 -26 17 -47 32 -47 35 1 3 39 27 85 54 200 116 283 238 305 448 35 340 -161 526 -638 605 -76 12 -197 17 -549 20 l-453 5 0 -250z" id="svg_13" stroke="#ffffff" stroke-opacity="1" fill="#ffffff" fill-opacity="1"/>
<path d="M4461 6081 c-18 -18 -19 -30 -14 -108 3 -55 -1 -133 -11 -208 -9 -65 -16 -152 -16 -192 0 -61 3 -74 19 -83 64 -34 90 68 94 366 2 194 -4 244 -33 244 -11 0 -29 -9 -39 -19z" id="svg_14" stroke="#ffffff" stroke-opacity="1" fill="#ffffff" fill-opacity="1"/>
<path d="M2762 5955 c-88 -106 -202 -266 -202 -284 0 -6 4 -11 8 -11 5 0 82 -9 171 -20 90 -11 165 -19 166 -18 2 2 -6 48 -17 103 -11 55 -25 152 -32 215 l-12 115 -82 -100z" id="svg_15" stroke="#ffffff" stroke-opacity="1" fill="#ffffff" fill-opacity="1"/>
<path d="M6286 5849 c-3 -13 -10 -44 -16 -69 -49 -217 -20 -1783 46 -2415 7 -77 14 -148 14 -157 0 -35 21 -17 71 60 78 120 191 355 237 492 87 263 116 446 116 730 1 217 -9 315 -50 498 -65 291 -199 590 -369 825 -40 55 -44 58 -49 36z" id="svg_16" stroke="#ffffff" stroke-opacity="1" fill="#ffffff" fill-opacity="1"/>
<path d="M20580 4590 l0 -690 290 0 290 0 0 690 0 690 -290 0 -290 0 0 -690z" id="svg_17" stroke="#ffffff" stroke-opacity="1" fill="#ffffff" fill-opacity="1"/>
<path d="M8075 5258 c-3 -7 -4 -317 -3 -688 l3 -675 290 0 290 0 0 685 0 685 -288 3 c-225 2 -289 0 -292 -10z" id="svg_18" stroke="#ffffff" stroke-opacity="1" fill="#ffffff" fill-opacity="1"/>
<path d="M2245 4783 c-14 -33 -18 -424 -6 -533 29 -264 99 -508 216 -745 67 -137 163 -301 171 -293 15 15 119 670 140 883 8 82 26 208 40 280 39 200 40 219 16 243 -33 33 -118 53 -213 51 -79 -2 -89 1 -179 41 -52 23 -114 53 -136 67 -39 22 -42 22 -49 6z" id="svg_19" stroke="#ffffff" stroke-opacity="1" fill="#ffffff" fill-opacity="1"/>
<path d="M5018 4700 c-105 -10 -204 -30 -223 -44 -26 -19 -30 -242 -14 -694 16 -468 16 -869 0 -976 -15 -107 -43 -155 -98 -171 -23 -7 -70 -36 -103 -64 -78 -65 -158 -91 -295 -98 -129 -7 -167 7 -195 69 -59 135 -90 521 -113 1405 -7 248 -15 454 -18 458 -4 3 -66 2 -138 -3 -251 -18 -282 -59 -301 -402 -8 -144 -13 -176 -39 -250 -19 -53 -34 -123 -40 -185 -12 -109 -55 -292 -94 -395 -21 -58 -41 -99 -95 -197 -9 -15 -16 -73 -20 -146 -5 -118 -6 -122 -34 -147 -17 -15 -28 -34 -28 -50 0 -36 -25 -67 -60 -75 -17 -4 -30 -9 -30 -12 0 -22 276 -197 425 -269 324 -157 615 -223 982 -224 370 0 684 71 998 225 101 50 296 165 324 191 2 2 -17 72 -43 156 -26 83 -56 201 -68 262 -19 103 -38 198 -89 446 -23 112 -61 405 -84 645 -32 345 -57 474 -98 513 -40 37 -210 51 -409 32z" id="svg_20" stroke="#ffffff" stroke-opacity="1" fill="#ffffff" fill-opacity="1"/>
<path d="M2911 4233 c-5 -21 -12 -77 -15 -124 -15 -214 -101 -595 -179 -794 -12 -30 -16 -78 -17 -192 0 -190 16 -210 58 -73 89 291 221 1096 196 1194 -9 38 -32 32 -43 -11z" id="svg_21" stroke="#ffffff" stroke-opacity="1" fill="#ffffff" fill-opacity="1"/>
<path d="M5686 3879 c-29 -34 -33 -71 -11 -109 20 -35 18 -80 -5 -118 -24 -39 -24 -43 -6 -36 24 9 35 -28 52 -173 28 -248 136 -743 162 -743 4 0 26 17 50 38 l43 37 -25 96 c-45 175 -116 559 -136 737 -22 196 -35 269 -52 289 -17 21 -45 15 -72 -18z" id="svg_22" stroke="#ffffff" stroke-opacity="1" fill="#ffffff" fill-opacity="1"/>
<path d="M5963 3813 c3 -27 15 -104 26 -173 30 -179 41 -558 17 -614 -19 -45 -21 -148 -3 -189 l12 -28 28 29 c28 29 28 31 18 88 -13 71 -14 84 -1 84 11 0 52 -132 105 -335 57 -217 100 -315 138 -315 18 0 19 5 15 63 -3 36 -27 127 -56 216 -52 153 -109 393 -157 656 -64 353 -115 565 -136 565 -7 0 -9 -18 -6 -47z" id="svg_23" stroke="#ffffff" stroke-opacity="1" fill="#ffffff" fill-opacity="1"/>
<path d="M7130 3240 l0 -300 220 0 220 0 0 30 0 30 -185 0 -185 0 0 105 0 105 180 0 180 0 0 35 0 35 -180 0 -180 0 0 95 0 95 185 0 185 0 0 35 0 35 -220 0 -220 0 0 -300z" id="svg_24" stroke="#ffffff" stroke-opacity="1" fill="#ffffff" fill-opacity="1"/>
<path d="M7880 3240 l0 -300 35 0 35 0 2 262 3 261 165 -259 166 -259 57 -3 57 -3 0 301 0 300 -35 0 -35 0 -2 -265 -3 -265 -169 265 -170 265 -53 0 -53 0 0 -300z" id="svg_25" stroke="#ffffff" stroke-opacity="1" fill="#ffffff" fill-opacity="1"/>
<path d="M8838 3528 c-51 -13 -95 -65 -103 -121 -4 -24 -5 -118 -3 -210 3 -150 5 -168 24 -194 39 -52 77 -66 189 -71 182 -8 260 14 295 83 9 18 16 68 18 123 l4 92 -127 0 -126 0 3 -27 c3 -28 3 -28 91 -31 l87 -3 0 -43 c0 -57 -15 -98 -43 -116 -31 -20 -219 -26 -272 -8 -65 21 -75 53 -75 238 0 174 6 195 60 222 40 21 200 25 262 7 39 -10 68 -48 68 -89 0 -16 6 -20 35 -20 34 0 35 1 35 39 0 54 -35 102 -90 123 -51 19 -267 23 -332 6z" id="svg_26" stroke="#ffffff" stroke-opacity="1" fill="#ffffff" fill-opacity="1"/>
<path d="M9590 3240 l0 -300 220 0 220 0 0 30 0 30 -185 0 -185 0 0 105 0 105 180 0 180 0 0 35 0 35 -180 0 -180 0 0 95 0 95 185 0 185 0 0 35 0 35 -220 0 -220 0 0 -300z" id="svg_27" stroke="#ffffff" stroke-opacity="1" fill="#ffffff" fill-opacity="1"/>
<path d="M10340 3240 l0 -300 35 0 35 0 2 262 3 262 166 -259 165 -260 57 -3 57 -3 0 301 0 300 -35 0 -35 0 -2 -265 -3 -265 -169 265 -169 265 -54 0 -53 0 0 -300z" id="svg_28" stroke="#ffffff" stroke-opacity="1" fill="#ffffff" fill-opacity="1"/>
<path d="M11210 3240 l0 -300 35 0 35 0 0 135 0 135 180 0 180 0 0 -135 0 -135 35 0 35 0 0 301 0 300 -32 -3 -33 -3 -3 -127 -3 -128 -179 0 -180 0 0 130 0 130 -35 0 -35 0 0 -300z" id="svg_29" stroke="#ffffff" stroke-opacity="1" fill="#ffffff" fill-opacity="1"/>
<path d="M12130 3273 c-57 -148 -109 -283 -117 -301 l-14 -33 38 3 c37 3 38 5 64 73 l27 70 162 0 162 0 27 -70 c26 -68 27 -70 64 -73 l37 -3 -19 48 c-10 26 -63 162 -117 301 l-98 252 -56 0 -56 0 -104 -267z m231 46 c32 -79 58 -150 58 -156 1 -10 -31 -13 -129 -13 -71 0 -130 4 -130 8 0 8 85 233 110 290 6 13 16 22 22 20 6 -2 38 -69 69 -149z" id="svg_30" stroke="#ffffff" stroke-opacity="1" fill="#ffffff" fill-opacity="1"/>
<path d="M12870 3241 l0 -301 30 0 30 0 0 115 0 115 140 0 c136 0 142 -1 165 -25 23 -22 25 -32 25 -115 l0 -90 40 0 40 0 0 78 c0 97 -14 148 -46 168 l-25 17 23 11 c34 17 51 78 45 167 -9 140 -26 149 -284 157 l-183 5 0 -302z m376 205 c9 -13 14 -46 14 -96 0 -112 -4 -114 -186 -118 l-144 -4 0 122 0 121 151 -3 c135 -3 152 -5 165 -22z" id="svg_31" stroke="#ffffff" stroke-opacity="1" fill="#ffffff" fill-opacity="1"/>
<path d="M13670 3240 l0 -300 35 0 35 0 0 300 0 300 -35 0 -35 0 0 -300z" id="svg_32" stroke="#ffffff" stroke-opacity="1" fill="#ffffff" fill-opacity="1"/>
<path d="M14245 3498 c-13 -33 -112 -288 -213 -546 -3 -10 5 -13 33 -10 36 3 38 5 64 73 l27 70 160 3 161 2 29 -75 c28 -74 29 -75 65 -75 l36 0 -116 298 -117 297 -56 3 -55 3 -18 -43z m145 -184 c33 -86 59 -158 57 -161 -2 -2 -63 -2 -134 -1 l-130 3 61 158 c33 86 66 157 73 157 6 0 39 -70 73 -156z" id="svg_33" stroke="#ffffff" stroke-opacity="1" fill="#ffffff" fill-opacity="1"/>
<path d="M15480 3527 c-69 -24 -92 -139 -41 -207 25 -35 26 -40 6 -40 -8 0 -29 -13 -47 -29 -32 -28 -33 -32 -36 -118 -7 -162 25 -194 197 -201 130 -5 198 8 236 48 l28 29 42 -34 c49 -40 56 -42 79 -16 17 19 16 21 -42 66 l-59 46 5 70 5 69 -37 0 c-35 0 -36 -1 -36 -40 0 -22 -3 -40 -7 -39 -5 0 -64 46 -133 102 -133 108 -166 153 -154 202 9 36 44 47 132 43 85 -4 102 -17 102 -80 0 -37 1 -38 35 -38 35 0 35 0 35 45 0 99 -52 135 -193 134 -45 0 -98 -5 -117 -12z m167 -378 c62 -50 112 -96 110 -102 -14 -43 -119 -67 -232 -52 -85 10 -98 28 -93 127 3 69 6 82 27 99 42 34 66 25 188 -72z" id="svg_34" stroke="#ffffff" stroke-opacity="1" fill="#ffffff" fill-opacity="1"/>
<path d="M16770 3518 c-69 -35 -75 -54 -78 -270 -3 -169 -1 -192 17 -232 31 -71 59 -81 226 -81 123 0 144 3 175 20 46 27 70 76 70 143 l0 52 -35 0 c-34 0 -35 -1 -35 -40 0 -97 -49 -125 -204 -118 -85 4 -90 6 -117 36 l-29 32 0 170 c0 187 6 211 55 235 39 18 186 21 234 4 34 -12 61 -53 61 -94 0 -22 4 -25 36 -25 l37 0 -5 51 c-3 28 -14 62 -25 77 -35 48 -67 57 -208 60 -119 3 -134 1 -175 -20z" id="svg_35" stroke="#ffffff" stroke-opacity="1" fill="#ffffff" fill-opacity="1"/>
<path d="M17590 3528 c-46 -13 -88 -53 -100 -97 -14 -50 -13 -350 1 -392 30 -88 68 -104 254 -104 165 0 194 8 239 68 19 26 21 43 24 220 3 184 2 194 -20 237 -33 65 -76 79 -238 79 -69 -1 -141 -5 -160 -11z m290 -66 c19 -9 40 -28 47 -42 15 -30 18 -326 3 -364 -17 -45 -54 -60 -159 -64 -123 -5 -175 8 -201 51 -18 28 -20 51 -20 192 0 108 4 168 13 185 22 44 70 60 182 60 75 0 109 -4 135 -18z" id="svg_36" stroke="#ffffff" stroke-opacity="1" fill="#ffffff" fill-opacity="1"/>
<path d="M18347 3533 c-4 -3 -7 -138 -7 -300 l0 -293 35 0 35 0 0 262 c0 221 2 260 14 248 7 -8 84 -126 170 -262 l158 -248 54 0 54 0 0 301 0 300 -32 -3 -33 -3 -3 -264 -2 -264 -171 266 -171 267 -47 0 c-26 0 -51 -3 -54 -7z" id="svg_37" stroke="#ffffff" stroke-opacity="1" fill="#ffffff" fill-opacity="1"/>
<path d="M19274 3526 c-43 -19 -64 -69 -64 -151 0 -126 33 -148 243 -165 70 -5 137 -15 148 -20 16 -9 19 -22 19 -84 0 -102 -10 -109 -143 -114 -167 -7 -207 13 -207 104 0 32 -2 34 -35 34 -35 0 -35 0 -35 -46 0 -59 22 -105 63 -129 28 -18 51 -20 187 -20 132 0 160 3 183 18 48 31 60 62 61 147 1 132 -31 157 -218 172 -145 11 -160 13 -180 34 -24 23 -21 115 3 145 18 23 25 24 149 24 146 0 159 -5 168 -66 6 -37 9 -39 42 -39 l35 0 -6 46 c-6 57 -32 94 -78 110 -48 18 -294 17 -335 0z" id="svg_38" stroke="#ffffff" stroke-opacity="1" fill="#ffffff" fill-opacity="1"/>
<path d="M19950 3505 l0 -35 100 0 100 0 0 -265 0 -265 35 0 35 0 0 265 0 265 100 0 100 0 0 35 0 35 -235 0 -235 0 0 -35z" id="svg_39" stroke="#ffffff" stroke-opacity="1" fill="#ffffff" fill-opacity="1"/>
<path d="M20688 3535 c-5 -5 -8 -140 -8 -302 l0 -293 35 0 35 0 0 115 0 115 140 0 c136 0 142 -1 165 -25 23 -22 25 -32 25 -115 l0 -90 35 0 35 0 0 103 c0 106 -13 147 -46 147 -8 0 -14 5 -14 10 0 6 5 10 10 10 6 0 19 9 30 20 17 17 20 33 20 120 0 117 -13 152 -62 170 -38 14 -389 26 -400 15z m355 -76 c33 -18 37 -28 37 -110 0 -111 -4 -113 -186 -117 l-144 -4 0 121 0 121 136 0 c83 0 144 -4 157 -11z" id="svg_40" stroke="#ffffff" stroke-opacity="1" fill="#ffffff" fill-opacity="1"/>
<path d="M21484 3525 c-3 -8 -4 -117 -2 -242 3 -204 5 -232 23 -268 31 -62 69 -78 198 -83 179 -8 252 21 277 109 6 18 10 139 10 266 l0 233 -35 0 -35 0 0 -239 c0 -239 0 -240 -24 -268 -24 -27 -27 -28 -141 -31 -126 -4 -167 5 -188 42 -8 14 -13 96 -15 259 l-4 237 -29 0 c-17 0 -32 -6 -35 -15z" id="svg_41" stroke="#ffffff" stroke-opacity="1" fill="#ffffff" fill-opacity="1"/>
<path d="M22402 3521 c-71 -34 -82 -70 -82 -286 0 -252 19 -287 159 -301 58 -7 60 -8 63 -38 3 -27 7 -31 36 -34 29 -3 32 -6 32 -38 l0 -34 -60 0 c-53 0 -60 -2 -60 -20 0 -18 7 -20 66 -20 92 0 104 8 104 74 0 58 -7 66 -61 66 -22 0 -29 5 -29 19 0 16 10 19 68 23 122 9 163 46 170 153 l4 65 -36 0 c-35 0 -36 -1 -36 -40 0 -92 -41 -120 -180 -120 -85 0 -137 20 -157 60 -16 32 -18 324 -2 368 16 45 60 62 163 62 131 0 176 -27 176 -106 0 -21 5 -24 35 -24 34 0 35 1 35 38 0 46 -26 99 -63 126 -25 18 -45 21 -165 24 -120 2 -142 0 -180 -17z" id="svg_42" stroke="#ffffff" stroke-opacity="1" fill="#ffffff" fill-opacity="1"/>
<path d="M23296 3531 c-9 -14 -226 -575 -226 -583 0 -4 15 -8 34 -8 32 0 34 2 61 75 l27 75 161 -2 161 -3 29 -72 c28 -70 31 -73 63 -73 19 0 34 2 34 4 0 2 -39 103 -86 223 -47 120 -99 253 -116 296 l-29 77 -54 0 c-30 0 -56 -4 -59 -9z m130 -218 l61 -158 -130 -3 c-71 -1 -132 -1 -134 1 -8 8 119 317 130 317 7 0 40 -71 73 -157z" id="svg_43" stroke="#ffffff" stroke-opacity="1" fill="#ffffff" fill-opacity="1"/>
<path d="M24020 3528 c-46 -13 -88 -53 -100 -97 -14 -50 -13 -350 1 -392 30 -88 68 -104 254 -104 165 0 194 8 239 68 19 26 21 43 24 220 3 184 2 194 -20 237 -33 65 -76 79 -238 79 -69 -1 -141 -5 -160 -11z m290 -66 c19 -9 40 -28 47 -42 15 -30 18 -326 3 -364 -17 -46 -54 -60 -164 -64 -198 -7 -216 13 -216 248 0 104 4 163 13 180 22 44 70 60 182 60 75 0 109 -4 135 -18z" id="svg_44" stroke="#ffffff" stroke-opacity="1" fill="#ffffff" fill-opacity="1"/>
<path d="M15795 2698 c-19 -52 -155 -459 -155 -463 0 -3 129 -4 286 -3 l287 3 78 230 c43 127 78 233 79 238 0 4 -128 7 -285 7 -219 0 -287 -3 -290 -12z" id="svg_45" stroke="#ffffff" stroke-opacity="1" fill="#ffffff" fill-opacity="1"/>
</g></g></svg>