<svg xmlns="http://www.w3.org/2000/svg" version="1.0" width="1890.000000" height="1736.000000" preserveAspectRatio="xMidYMid meet"><rect id="backgroundrect" width="100%" height="100%" x="0" y="0" fill="none" stroke="none"/>
<metadata>
Created by potrace 1.16, written by Peter Selinger 2001-2019
</metadata>

<g class="currentLayer" style=""><title>Layer 1</title><g transform="translate(0,1736) scale(0.10000000149011612,-0.10000000149011612) " fill="#ffffff" stroke="none" id="svg_1" class="selected" fill-opacity="1">
<path d="M9090 15613 c-811 -25 -1617 -200 -2385 -518 -238 -98 -725 -342 -725 -363 0 -4 33 -25 73 -46 284 -153 650 -442 706 -559 45 -92 114 -413 175 -807 21 -135 166 -1402 166 -1449 0 -11 47 -12 278 -7 520 13 574 34 661 253 30 76 60 276 101 673 44 414 118 811 210 1115 63 207 98 356 191 805 26 128 42 178 80 264 47 104 63 126 95 126 36 0 50 -56 34 -141 -24 -128 3 -214 83 -263 28 -17 66 -31 95 -34 44 -4 52 -1 85 28 38 33 58 82 72 180 14 88 54 222 95 309 22 49 48 120 56 158 26 118 43 217 44 251 l0 32 -52 -2 c-29 -1 -91 -3 -138 -5z" id="svg_2" fill="#ffffff" fill-opacity="1"/>
<path d="M9425 15304 c-11 -440 0 -634 41 -720 14 -29 21 -34 51 -34 28 0 43 8 68 35 35 37 52 90 62 198 3 32 10 54 14 50 5 -5 29 -64 53 -131 46 -127 96 -220 140 -261 14 -13 47 -29 73 -36 59 -14 73 -39 102 -180 29 -145 49 -361 61 -690 11 -296 32 -641 50 -820 64 -642 86 -762 151 -831 27 -29 43 -145 35 -254 -18 -233 -18 -236 -3 -272 30 -72 129 -118 314 -143 195 -28 305 -67 311 -112 6 -38 -133 -122 -276 -167 -46 -14 -97 -26 -115 -26 -124 0 -212 -93 -260 -275 -18 -66 -47 -299 -47 -375 l0 -48 63 -6 c94 -9 752 -25 1305 -32 l492 -7 0 24 c0 13 7 107 15 209 25 322 18 431 -32 518 -34 60 -88 96 -201 133 -53 17 -121 42 -151 55 -45 20 -52 26 -41 39 16 19 99 58 183 85 116 38 153 84 183 231 18 89 17 239 -6 639 -50 889 69 2125 257 2683 21 64 33 111 27 116 -16 14 -285 138 -445 204 -722 300 -1530 478 -2285 504 l-182 6 -7 -309z m1580 -3604 c20 -7 25 -14 18 -21 -19 -19 -86 -29 -203 -29 -125 0 -190 7 -190 22 0 37 293 59 375 28z" id="svg_3" fill="#ffffff" fill-opacity="1"/>
<path d="M8785 14518 c-24 -14 -40 -33 -61 -71 -35 -65 -59 -832 -29 -935 17 -57 43 -79 74 -63 24 13 75 96 103 165 50 127 84 410 75 631 -7 164 -17 212 -50 250 -25 30 -82 41 -112 23z" id="svg_4" fill="#ffffff" fill-opacity="1"/>
<path d="M9324 14138 c-15 -23 -17 -225 -4 -258 25 -60 80 -30 95 51 17 91 -58 260 -91 207z" id="svg_5" fill="#ffffff" fill-opacity="1"/>
<path d="M9251 13632 c-19 -10 -47 -37 -64 -60 -34 -47 -39 -96 -19 -202 26 -141 13 -421 -38 -785 -42 -305 -52 -424 -48 -567 3 -125 3 -127 33 -159 67 -71 137 -74 186 -6 63 88 103 273 119 567 41 720 35 1062 -20 1188 -18 41 -20 42 -67 42 -28 0 -63 -8 -82 -18z" id="svg_6" fill="#ffffff" fill-opacity="1"/>
<path d="M4303 13397 c-204 -228 -384 -453 -547 -686 -106 -152 -230 -350 -224 -357 9 -8 223 -42 373 -59 226 -25 628 -74 658 -80 23 -4 27 -1 27 17 0 12 -25 151 -55 308 -73 383 -82 443 -100 665 -19 243 -25 295 -33 295 -4 -1 -48 -47 -99 -103z" id="svg_7" fill="#ffffff" fill-opacity="1"/>
<path d="M8678 13085 c-35 -19 -108 -130 -108 -164 0 -15 7 -37 16 -50 15 -20 22 -22 68 -16 42 5 57 13 85 43 32 36 33 38 27 107 -7 91 -29 111 -88 80z" id="svg_8" fill="#ffffff" fill-opacity="1"/>
<path d="M14655 12914 c-61 -212 -96 -486 -115 -919 -14 -296 -14 -1598 0 -2140 5 -231 14 -618 20 -860 32 -1377 73 -2274 140 -3085 37 -439 98 -980 110 -980 11 0 224 323 317 480 516 872 822 1818 918 2835 22 233 31 762 16 1000 -75 1218 -442 2325 -1106 3335 -93 141 -272 390 -280 390 -2 0 -11 -25 -20 -56z" id="svg_9" fill="#ffffff" fill-opacity="1"/>
<path d="M7149 11681 c-23 -24 -29 -38 -29 -74 0 -63 41 -98 141 -122 106 -24 328 -35 407 -19 64 13 145 51 182 86 50 47 3 98 -92 98 -77 0 -238 18 -354 41 -56 10 -129 19 -163 19 -56 0 -66 -3 -92 -29z" id="svg_10" fill="#ffffff" fill-opacity="1"/>
<path d="M9088 11678 c-48 -40 -64 -128 -33 -187 25 -49 107 -66 158 -33 44 29 56 53 57 107 0 46 -4 55 -38 88 -32 32 -44 37 -83 37 -25 0 -52 -6 -61 -12z" id="svg_11" fill="#ffffff" fill-opacity="1"/>
<path d="M2615 9768 c-8 -36 -33 -281 -44 -428 -28 -367 -23 -780 15 -1155 108 -1086 483 -2146 1077 -3040 93 -139 86 -130 92 -123 7 7 173 936 235 1313 104 637 157 1031 185 1370 26 320 109 851 172 1105 47 192 55 317 23 379 -43 86 -118 129 -305 177 -117 29 -97 29 -525 22 -89 -2 -136 14 -383 126 -221 100 -332 157 -440 222 -49 30 -90 54 -92 54 -3 0 -7 -10 -10 -22z" id="svg_12" fill="#ffffff" fill-opacity="1"/>
<path d="M11005 9493 c-220 -17 -520 -59 -650 -89 -88 -21 -172 -60 -179 -82 -21 -65 -29 -225 -33 -692 -5 -521 4 -1029 32 -1715 52 -1296 44 -2282 -21 -2645 -35 -197 -94 -320 -179 -376 -13 -8 -53 -22 -88 -29 -108 -23 -173 -64 -357 -229 -121 -110 -282 -176 -580 -237 -122 -26 -454 -37 -556 -20 -129 23 -224 83 -268 170 -126 248 -220 1003 -281 2241 -23 482 -34 823 -69 2128 -18 672 -35 1224 -37 1226 -11 10 -595 -15 -688 -30 -276 -42 -416 -130 -505 -317 -81 -170 -112 -353 -126 -742 -20 -539 -32 -617 -135 -895 -71 -189 -97 -317 -114 -557 -15 -205 -93 -568 -196 -910 -87 -289 -244 -652 -311 -717 -43 -41 -57 -76 -83 -203 -17 -82 -21 -138 -21 -290 0 -251 -11 -351 -47 -422 -23 -45 -35 -58 -63 -67 -23 -8 -45 -26 -65 -55 -26 -38 -30 -54 -31 -117 -2 -77 -12 -101 -61 -147 -26 -23 -56 -35 -170 -65 -24 -6 -43 -14 -43 -18 0 -4 15 -19 33 -33 1392 -1101 3128 -1604 4912 -1424 952 97 1888 407 2735 908 165 97 480 306 486 322 3 6 -22 97 -55 201 -188 595 -261 867 -306 1149 -69 428 -125 716 -170 874 -94 328 -208 1106 -300 2046 -72 739 -87 877 -115 1080 -64 449 -116 613 -220 696 -42 34 -155 64 -292 79 -86 9 -680 12 -783 3z" id="svg_13" fill="#ffffff" fill-opacity="1"/>
<path d="M9022 9112 c-46 -121 -64 -226 -60 -355 3 -123 18 -170 55 -175 30 -4 69 39 86 92 17 57 14 382 -5 456 -20 82 -39 78 -76 -18z" id="svg_14" fill="#ffffff" fill-opacity="1"/>
<path d="M4770 9068 c-71 -125 -104 -249 -105 -398 0 -105 2 -119 25 -160 27 -49 61 -67 104 -56 21 5 33 20 51 60 37 83 46 186 36 381 -11 194 -19 225 -56 225 -19 0 -31 -11 -55 -52z" id="svg_15" fill="#ffffff" fill-opacity="1"/>
<path d="M12814 8849 c-23 -37 -9 -372 17 -421 16 -30 36 -6 50 60 30 149 -22 433 -67 361z" id="svg_16" fill="#ffffff" fill-opacity="1"/>
<path d="M13269 8633 c-14 -43 -7 -253 10 -295 12 -31 32 -36 52 -12 22 27 25 204 4 280 -21 77 -46 87 -66 27z" id="svg_17" fill="#ffffff" fill-opacity="1"/>
<path d="M4652 8205 c-54 -39 -77 -130 -87 -346 -11 -256 -61 -602 -154 -1059 -167 -821 -263 -1172 -382 -1391 -10 -20 -29 -78 -42 -130 -21 -89 -22 -114 -22 -499 0 -440 5 -481 52 -488 43 -6 114 183 208 557 142 565 203 865 314 1526 136 812 194 1282 195 1580 1 160 -2 206 -14 230 -18 36 -37 41 -68 20z" id="svg_18" fill="#ffffff" fill-opacity="1"/>
<path d="M13330 7998 c-44 -72 -55 -127 -54 -263 0 -115 3 -139 27 -204 32 -88 50 -111 89 -111 55 0 88 56 108 183 25 156 -5 327 -70 397 -38 41 -74 40 -100 -2z" id="svg_19" fill="#ffffff" fill-opacity="1"/>
<path d="M12884 7996 c-46 -38 -69 -115 -68 -226 1 -118 16 -174 59 -217 43 -43 77 -43 116 -2 36 39 49 82 56 190 7 104 -12 177 -59 231 -44 49 -68 55 -104 24z" id="svg_20" fill="#ffffff" fill-opacity="1"/>
<path d="M12939 7102 c-53 -34 -101 -87 -130 -144 -34 -66 -23 -159 29 -267 23 -45 44 -102 48 -126 8 -56 -15 -135 -58 -199 -18 -27 -41 -61 -50 -75 -28 -41 -23 -55 16 -48 27 4 38 1 54 -16 51 -57 73 -148 97 -407 31 -339 78 -654 145 -985 103 -506 313 -1335 339 -1335 7 0 182 138 255 202 l40 35 -62 234 c-57 218 -83 336 -227 1034 -103 503 -158 851 -195 1235 -41 424 -90 742 -125 810 -21 40 -72 80 -104 80 -15 0 -47 -13 -72 -28z" id="svg_21" fill="#ffffff" fill-opacity="1"/>
<path d="M13680 6944 c-17 -45 -11 -137 15 -224 97 -325 188 -1319 171 -1870 -6 -216 -21 -322 -55 -389 -50 -97 -64 -252 -36 -398 17 -91 55 -223 64 -223 3 0 46 37 94 83 l88 82 -25 155 c-26 155 -34 284 -17 294 28 18 168 -438 336 -1098 70 -278 150 -518 224 -671 69 -144 109 -195 155 -195 40 0 52 9 65 43 43 113 -38 451 -243 1009 -79 217 -263 1036 -391 1743 -65 359 -202 1042 -244 1216 -40 166 -96 358 -122 419 -17 40 -26 50 -45 50 -17 0 -28 -8 -34 -26z" id="svg_22" fill="#ffffff" fill-opacity="1"/>
<path d="M13454 6588 c11 -138 55 -466 77 -582 30 -159 53 -205 78 -157 18 33 43 271 37 346 -19 230 -111 475 -178 475 -20 0 -21 -3 -14 -82z" id="svg_23" fill="#ffffff" fill-opacity="1"/>
<path d="M5015 5016 c-40 -40 -50 -71 -40 -123 10 -57 33 -93 57 -93 28 0 96 72 126 132 38 78 15 118 -68 118 -33 0 -47 -6 -75 -34z" id="svg_24" fill="#ffffff" fill-opacity="1"/>
<path d="M4794 4034 c-53 -35 -180 -160 -210 -206 -51 -79 -31 -98 98 -98 121 0 149 12 182 78 34 67 40 206 10 236 -21 22 -35 20 -80 -10z" id="svg_25" fill="#ffffff" fill-opacity="1"/>
</g></g></svg>