<svg xmlns="http://www.w3.org/2000/svg" version="1.0" width="2727.000000" height="1736.000000" preserveAspectRatio="xMidYMid meet"><rect id="backgroundrect" width="100%" height="100%" x="0" y="0" fill="none" stroke="none"/>
<metadata>
Created by potrace 1.16, written by Peter Selinger 2001-2019
</metadata>

<g class="currentLayer" style=""><title>Layer 1</title><g transform="translate(0,1736) scale(0.10000000149011612,-0.10000000149011612) " fill="#ffffff" stroke="none" id="svg_1" class="selected" fill-opacity="1">
<path d="M13555 14564 c-16 -2 -73 -9 -125 -15 -202 -22 -446 -82 -657 -160 -110 -40 -423 -188 -423 -199 0 -3 54 -41 120 -85 148 -96 212 -161 235 -236 28 -95 63 -321 95 -611 17 -156 33 -294 36 -307 l5 -24 142 7 c78 4 159 12 179 17 76 20 97 78 128 349 27 235 51 368 94 516 19 66 49 189 66 274 18 85 43 176 56 203 37 72 55 61 46 -30 -4 -48 -2 -54 26 -82 32 -33 67 -39 95 -18 10 7 26 46 37 92 10 44 26 98 36 120 19 46 43 140 44 173 0 21 -2 22 -102 21 -57 -1 -116 -4 -133 -5z" id="svg_2" fill="#ffffff" fill-opacity="1"/>
<path d="M13848 14459 c-3 -168 2 -290 13 -326 19 -62 72 -32 85 46 l7 44 21 -54 c31 -80 55 -115 90 -130 41 -19 53 -68 66 -274 6 -88 15 -232 20 -320 12 -193 36 -407 51 -455 7 -19 18 -43 27 -52 12 -14 14 -36 9 -109 -3 -50 -2 -102 4 -115 11 -31 55 -50 145 -64 72 -12 115 -28 121 -46 5 -16 -86 -62 -158 -78 -98 -23 -125 -68 -136 -230 l-6 -83 183 -6 c101 -4 283 -7 406 -7 l223 0 5 43 c12 100 15 205 7 240 -13 55 -44 83 -118 108 -35 11 -62 26 -61 31 2 6 28 20 58 32 100 40 94 11 95 524 1 404 3 462 23 606 27 193 54 331 82 410 11 33 17 63 12 68 -14 14 -251 114 -359 151 -234 82 -538 141 -788 154 l-125 6 -2 -114z" id="svg_3" fill="#ffffff" fill-opacity="1"/>
<path d="M13554 14079 c-16 -18 -20 -46 -28 -200 -10 -195 -1 -263 32 -257 49 9 87 153 86 325 0 95 -3 116 -19 133 -23 26 -47 25 -71 -1z" id="svg_4" fill="#ffffff" fill-opacity="1"/>
<path d="M13756 13695 c-24 -26 -25 -29 -19 -148 4 -92 0 -161 -16 -283 -27 -207 -28 -315 -3 -337 10 -10 31 -17 45 -17 21 0 31 8 46 38 32 63 42 146 47 422 7 301 1 342 -48 348 -20 2 -35 -4 -52 -23z" id="svg_5" fill="#ffffff" fill-opacity="1"/>
<path d="M11604 13592 c-127 -142 -330 -424 -319 -442 8 -13 450 -68 461 -58 3 3 -8 77 -25 164 -16 88 -33 191 -36 229 -10 120 -17 165 -23 165 -4 0 -30 -26 -58 -58z" id="svg_6" fill="#ffffff" fill-opacity="1"/>
<path d="M16120 13381 c-33 -124 -42 -243 -47 -636 -11 -792 31 -2010 87 -2575 21 -208 28 -250 38 -250 10 0 133 193 191 299 184 338 295 693 342 1091 18 152 15 517 -5 675 -55 426 -183 799 -398 1158 -66 111 -182 277 -193 277 -2 0 -9 -17 -15 -39z" id="svg_7" fill="#ffffff" fill-opacity="1"/>
<path d="M12851 12851 c-15 -28 -6 -58 22 -73 12 -6 67 -13 123 -16 104 -5 142 5 174 43 22 26 -3 39 -88 47 -42 3 -109 10 -148 14 -67 6 -73 5 -83 -15z" id="svg_8" fill="#ffffff" fill-opacity="1"/>
<path d="M10871 11927 c-16 -162 -14 -477 5 -637 42 -363 154 -727 320 -1039 64 -119 159 -274 178 -290 23 -19 165 832 196 1179 13 139 45 346 71 455 28 119 26 170 -10 205 -44 44 -125 63 -271 65 l-125 1 -115 52 c-63 29 -141 68 -173 87 -32 19 -60 35 -61 35 -2 0 -8 -51 -15 -113z" id="svg_9" fill="#ffffff" fill-opacity="1"/>
<path d="M14400 11894 c-126 -17 -203 -38 -221 -60 -22 -27 -24 -504 -4 -1079 18 -516 16 -950 -5 -1095 -14 -99 -55 -181 -95 -194 -72 -21 -93 -33 -164 -93 -61 -51 -91 -68 -153 -88 -197 -62 -381 -60 -447 6 -49 49 -87 231 -115 559 -28 312 -40 589 -61 1379 -8 288 -16 525 -17 527 -2 1 -78 -1 -168 -6 -346 -18 -389 -71 -411 -505 -10 -203 -12 -214 -49 -325 -45 -136 -47 -146 -60 -275 -21 -222 -145 -618 -220 -705 -31 -35 -40 -83 -47 -230 -6 -139 -20 -200 -47 -200 -20 0 -49 -56 -41 -80 8 -25 -32 -67 -74 -78 -19 -4 -36 -12 -38 -17 -3 -12 134 -115 270 -202 136 -86 411 -221 571 -278 787 -282 1687 -213 2408 186 92 51 308 188 308 195 0 2 -29 97 -64 211 -35 115 -73 260 -85 323 -11 63 -32 178 -47 255 -14 77 -34 172 -44 210 -41 150 -90 501 -135 970 -14 149 -35 326 -45 395 -36 238 -60 279 -171 299 -89 15 -400 12 -529 -5z" id="svg_10" fill="#ffffff" fill-opacity="1"/>
<path d="M13674 11744 c-19 -46 -36 -167 -28 -200 15 -59 57 -46 70 22 9 50 0 192 -14 206 -9 9 -16 2 -28 -28z" id="svg_11" fill="#ffffff" fill-opacity="1"/>
<path d="M11820 11718 c-42 -68 -59 -177 -36 -231 13 -33 19 -38 43 -35 42 5 58 74 47 197 -10 105 -22 121 -54 69z" id="svg_12" fill="#ffffff" fill-opacity="1"/>
<path d="M11756 11327 c-11 -16 -20 -67 -26 -155 -23 -304 -140 -843 -223 -1027 -31 -69 -32 -73 -35 -253 -4 -201 1 -252 24 -252 21 0 47 63 83 200 115 438 235 1172 229 1402 -3 87 -6 103 -20 106 -9 2 -24 -8 -32 -21z" id="svg_13" fill="#ffffff" fill-opacity="1"/>
<path d="M15535 11225 c-32 -82 -6 -216 43 -223 31 -5 52 48 52 130 0 74 -24 131 -56 136 -18 3 -25 -6 -39 -43z" id="svg_14" fill="#ffffff" fill-opacity="1"/>
<path d="M15333 11223 c-19 -48 -11 -140 16 -167 41 -40 81 7 81 95 0 65 -22 109 -56 109 -19 0 -28 -8 -41 -37z" id="svg_15" fill="#ffffff" fill-opacity="1"/>
<path d="M15366 10859 c-32 -25 -56 -69 -56 -101 0 -13 10 -43 21 -68 28 -61 27 -103 -5 -149 -30 -43 -33 -63 -8 -59 29 5 50 -57 62 -182 14 -147 54 -389 91 -555 41 -181 109 -439 117 -447 11 -11 132 90 132 110 0 9 -9 48 -20 87 -25 89 -124 562 -150 720 -10 66 -29 208 -40 315 -22 202 -35 281 -53 315 -21 41 -51 45 -91 14z" id="svg_16" fill="#ffffff" fill-opacity="1"/>
<path d="M15697 10781 c-4 -17 1 -53 9 -81 64 -216 99 -898 50 -989 -12 -23 -19 -57 -19 -95 0 -60 19 -162 32 -170 3 -2 24 12 45 31 l38 35 -12 95 c-7 51 -10 96 -7 99 7 7 56 -144 102 -321 21 -77 48 -180 62 -230 54 -199 121 -323 160 -299 42 25 24 141 -62 393 -57 166 -111 388 -170 696 -109 569 -159 796 -185 846 -16 28 -37 23 -43 -10z" id="svg_17" fill="#ffffff" fill-opacity="1"/>
<path d="M15600 10657 c0 -37 29 -248 41 -299 31 -135 68 51 38 194 -19 92 -79 171 -79 105z" id="svg_18" fill="#ffffff" fill-opacity="1"/>
<path d="M11783 9487 c-68 -69 -68 -91 0 -95 39 -3 51 1 72 23 22 21 26 33 23 72 -4 68 -26 68 -95 0z" id="svg_19" fill="#ffffff" fill-opacity="1"/>
<path d="M23734 8170 c-142 -81 -140 -305 4 -383 149 -81 322 22 322 193 0 173 -177 276 -326 190z m159 -22 c89 -27 142 -124 117 -214 -24 -84 -115 -145 -193 -129 -79 17 -147 97 -147 175 0 72 58 149 128 170 39 12 50 11 95 -2z" id="svg_20" fill="#ffffff" fill-opacity="1"/>
<path d="M23750 7980 c0 -123 1 -130 20 -130 18 0 20 7 20 55 0 48 3 55 19 55 22 0 52 -34 71 -80 10 -24 18 -30 42 -30 l30 0 -27 48 c-15 26 -31 51 -36 56 -5 5 3 19 16 32 17 16 25 34 25 58 0 50 -28 66 -112 66 l-68 0 0 -130z" id="svg_21" fill="#ffffff" fill-opacity="1"/>
<path d="M2870 6295 l0 -1415 395 0 395 0 0 1096 0 1096 623 -5 c519 -3 633 -7 688 -20 119 -28 192 -76 231 -151 47 -91 48 -113 48 -1093 l0 -923 390 0 391 0 -3 1163 c-3 1096 -4 1165 -22 1217 -31 94 -78 172 -142 235 -74 74 -148 118 -258 156 -170 59 -165 59 -1508 59 l-1228 0 0 -1415z" id="svg_22" fill="#ffffff" fill-opacity="1"/>
<path d="M11700 7700 c0 -6 176 -485 390 -1064 215 -580 390 -1057 390 -1060 0 -3 -162 -6 -360 -6 -198 0 -360 2 -360 5 0 3 68 231 150 507 83 276 150 508 150 515 0 10 -74 13 -367 13 l-368 0 -263 -853 c-144 -468 -262 -858 -262 -864 0 -10 278 -13 1355 -13 745 0 1355 1 1355 3 0 1 -225 637 -499 1412 l-499 1410 -406 3 c-277 1 -406 -1 -406 -8z" id="svg_23" fill="#ffffff" fill-opacity="1"/>
<path d="M13102 7698 c3 -7 153 -412 334 -900 l329 -888 392 0 393 0 -23 63 c-13 34 -156 439 -318 899 l-294 838 -409 0 c-322 0 -407 -3 -404 -12z" id="svg_24" fill="#ffffff" fill-opacity="1"/>
<path d="M15187 7668 c-32 -85 -1007 -2950 -1007 -2959 0 -5 159 -9 373 -9 l372 0 380 1117 c209 615 439 1292 512 1505 l132 388 -373 0 -373 0 -16 -42z" id="svg_25" fill="#ffffff" fill-opacity="1"/>
<path d="M16525 7693 c3 -10 179 -484 390 -1053 211 -569 386 -1043 390 -1052 7 -17 -14 -18 -354 -18 -245 0 -361 3 -361 10 0 6 68 237 150 514 83 277 150 506 150 510 0 3 -166 6 -369 6 -343 0 -370 -1 -375 -17 -3 -10 -120 -391 -261 -848 -141 -456 -258 -838 -261 -847 -5 -17 64 -18 1351 -18 l1357 0 -5 23 c-4 12 -228 649 -498 1415 l-493 1392 -409 0 c-386 0 -409 -1 -402 -17z" id="svg_26" fill="#ffffff" fill-opacity="1"/>
<path d="M18460 6295 l0 -1415 395 0 395 0 0 1095 0 1095 538 0 c295 0 587 -5 648 -10 192 -17 301 -65 345 -152 55 -107 53 -70 56 -1085 l4 -943 384 0 385 0 0 1148 c0 995 -2 1156 -15 1207 -52 202 -201 351 -425 424 -155 50 -175 51 -1487 51 l-1223 0 0 -1415z" id="svg_27" fill="#ffffff" fill-opacity="1"/>
<path d="M22680 7700 c0 -6 174 -480 386 -1053 213 -573 389 -1050 391 -1059 5 -17 -17 -18 -356 -18 -198 0 -361 2 -361 5 0 3 68 231 150 507 83 276 150 508 150 515 0 10 -74 13 -367 13 l-368 0 -263 -853 c-144 -468 -262 -858 -262 -864 0 -10 278 -13 1356 -13 1288 0 1356 1 1349 18 -4 9 -229 645 -500 1412 l-493 1395 -406 3 c-277 1 -406 -1 -406 -8z" id="svg_28" fill="#ffffff" fill-opacity="1"/>
<path d="M6182 6558 c3 -1051 5 -1148 21 -1201 33 -110 68 -168 152 -252 115 -114 229 -167 430 -200 74 -12 236 -15 903 -15 l812 0 0 1405 0 1405 -395 0 -395 0 0 -1086 0 -1086 -207 4 c-233 5 -321 20 -396 68 -64 40 -94 86 -117 175 -19 75 -20 111 -20 1002 l0 923 -395 0 -396 0 3 -1142z" id="svg_29" fill="#ffffff" fill-opacity="1"/>
<path d="M8620 7386 l0 -316 388 0 c553 0 673 -13 756 -82 76 -62 98 -173 53 -259 -18 -34 -36 -51 -78 -72 -77 -39 -182 -46 -691 -47 l-428 0 0 -315 0 -315 439 0 c399 0 445 -2 499 -18 138 -43 230 -148 267 -304 12 -49 15 -140 15 -420 l0 -358 376 0 375 0 -4 443 c-3 415 -5 447 -26 526 -12 46 -35 109 -52 141 -36 67 -135 168 -240 242 l-76 54 66 34 c149 78 289 204 349 318 93 175 108 471 31 625 -92 183 -309 319 -609 382 -207 44 -268 48 -847 52 l-563 5 0 -316z" id="svg_30" fill="#ffffff" fill-opacity="1"/>
<path d="M19690 5745 l0 -865 370 0 370 0 0 865 0 865 -370 0 -370 0 0 -865z" id="svg_31" fill="#ffffff" fill-opacity="1"/>
<path d="M4050 5735 l0 -865 370 0 370 0 0 865 0 865 -370 0 -370 0 0 -865z" id="svg_32" fill="#ffffff" fill-opacity="1"/>
<path d="M23253 4608 c-22 -22 -23 -22 -78 -4 -34 10 -68 15 -85 11 -31 -7 -80 -56 -80 -81 0 -19 35 -18 65 2 21 14 32 15 69 5 56 -14 102 -14 127 -1 19 10 49 59 49 80 0 18 -45 11 -67 -12z" id="svg_33" fill="#ffffff" fill-opacity="1"/>
<path d="M5017 4426 c-62 -17 -95 -42 -121 -92 -19 -35 -21 -60 -24 -260 -2 -147 1 -236 8 -265 15 -54 72 -113 125 -128 63 -17 233 -24 322 -12 172 22 206 65 219 276 l7 115 -162 0 -161 0 0 -45 0 -45 110 0 110 0 -6 -62 c-13 -141 -32 -153 -234 -153 -133 0 -148 2 -182 23 -21 13 -41 36 -47 54 -6 18 -11 110 -11 222 0 162 3 196 18 226 28 57 67 70 212 70 183 0 226 -18 239 -98 6 -37 6 -37 59 -40 l53 -3 -7 53 c-12 98 -48 136 -150 163 -73 19 -308 19 -377 1z" id="svg_34" fill="#ffffff" fill-opacity="1"/>
<path d="M13333 4429 c-51 -12 -90 -50 -99 -95 -12 -63 0 -151 25 -185 13 -17 21 -31 19 -33 -1 -1 -20 -9 -41 -19 -61 -28 -80 -82 -75 -218 4 -127 15 -149 94 -189 46 -23 58 -25 194 -24 167 1 220 12 266 58 l33 33 53 -43 c29 -24 58 -43 64 -44 9 0 54 52 54 64 0 2 -32 30 -71 60 l-72 56 2 85 2 85 -50 0 -50 0 -3 -44 -3 -44 -154 123 c-162 128 -191 162 -191 227 0 59 27 71 151 66 119 -4 129 -11 129 -95 l0 -53 50 0 50 0 0 64 c0 76 -25 121 -85 151 -46 23 -220 31 -292 14z m187 -490 c77 -61 140 -114 140 -118 0 -20 -51 -51 -100 -62 -63 -13 -212 -7 -252 12 -39 17 -51 56 -46 150 3 74 6 83 31 105 51 43 73 35 227 -87z" id="svg_35" fill="#ffffff" fill-opacity="1"/>
<path d="M14973 4431 c-59 -15 -97 -45 -123 -96 -25 -49 -25 -54 -25 -285 0 -226 1 -237 23 -282 19 -39 33 -52 80 -75 55 -27 62 -28 212 -27 123 0 163 4 195 18 80 34 105 76 112 188 l6 78 -50 0 -50 0 -6 -67 c-4 -59 -9 -71 -35 -94 -36 -33 -107 -44 -221 -36 -158 11 -165 23 -169 277 -5 297 5 313 196 318 180 6 216 -13 229 -117 l6 -51 50 0 50 0 -5 65 c-8 90 -33 134 -94 165 -45 23 -61 25 -199 27 -82 1 -164 -2 -182 -6z" id="svg_36" fill="#ffffff" fill-opacity="1"/>
<path d="M15962 4425 c-72 -20 -97 -39 -124 -93 -22 -45 -23 -57 -23 -282 0 -210 2 -239 19 -270 51 -96 102 -114 316 -114 214 0 265 18 316 114 17 31 19 60 19 270 0 231 0 236 -25 285 -20 39 -35 55 -75 75 -46 23 -61 25 -210 27 -116 2 -174 -1 -213 -12z m347 -91 c73 -29 76 -41 76 -281 0 -199 -1 -213 -21 -240 -37 -50 -66 -58 -214 -58 -110 0 -141 3 -167 18 -63 34 -68 51 -71 262 -4 233 2 260 68 293 39 19 60 22 167 22 89 0 134 -4 162 -16z" id="svg_37" fill="#ffffff" fill-opacity="1"/>
<path d="M18093 4431 c-88 -22 -117 -70 -118 -196 0 -175 31 -198 300 -219 218 -17 218 -17 218 -131 0 -63 -3 -80 -20 -96 -27 -28 -81 -39 -193 -39 -174 0 -211 21 -218 120 l-4 60 -51 0 -50 0 5 -69 c7 -94 32 -139 94 -171 46 -24 56 -25 224 -25 167 0 177 1 224 25 71 36 86 69 86 196 0 88 -3 105 -23 135 -37 56 -75 68 -266 83 -120 10 -178 19 -195 30 -31 20 -42 85 -26 145 17 64 49 74 221 69 161 -4 173 -10 184 -89 l7 -49 44 0 44 0 0 60 c0 81 -19 116 -78 143 -41 19 -68 22 -212 24 -91 1 -180 -2 -197 -6z" id="svg_38" fill="#ffffff" fill-opacity="1"/>
<path d="M22002 4426 c-65 -21 -92 -43 -115 -94 -21 -44 -22 -63 -22 -272 0 -192 3 -232 18 -271 31 -80 82 -111 200 -124 l67 -7 0 -38 c0 -38 1 -39 38 -42 35 -3 37 -5 40 -40 l3 -38 -75 0 -76 0 0 -30 0 -30 84 0 c117 0 132 7 140 67 4 26 3 62 -2 78 -7 27 -14 31 -60 39 -80 15 -65 32 37 43 158 18 203 62 209 206 l4 77 -51 0 -51 0 0 -49 c0 -123 -33 -146 -210 -146 -137 0 -162 8 -197 62 -16 24 -18 53 -18 238 0 236 4 253 70 281 47 19 243 19 290 0 41 -17 65 -60 65 -116 l0 -40 50 0 50 0 0 58 c0 84 -31 140 -95 172 -46 23 -63 25 -200 27 -106 2 -163 -2 -193 -11z" id="svg_39" fill="#ffffff" fill-opacity="1"/>
<path d="M24017 4430 c-50 -13 -87 -33 -113 -62 -42 -46 -49 -90 -49 -318 0 -185 3 -222 18 -263 37 -96 105 -121 322 -121 176 0 236 14 284 69 45 52 53 110 49 350 -3 202 -4 212 -28 255 -18 33 -38 52 -75 70 -46 23 -62 25 -210 27 -88 1 -177 -2 -198 -7z m360 -106 c47 -35 55 -77 51 -296 l-3 -197 -29 -30 c-38 -40 -111 -55 -241 -49 -110 5 -153 20 -182 65 -16 24 -18 53 -18 228 0 234 6 257 69 286 35 17 61 19 183 17 126 -3 145 -5 170 -24z" id="svg_40" fill="#ffffff" fill-opacity="1"/>
<path d="M2870 4050 l0 -380 280 0 280 0 0 45 0 45 -235 0 -235 0 0 130 0 130 230 0 230 0 0 45 0 45 -230 0 -230 0 0 115 0 115 235 0 235 0 0 45 0 45 -280 0 -280 0 0 -380z" id="svg_41" fill="#ffffff" fill-opacity="1"/>
<path d="M3810 4050 l0 -380 45 0 45 0 2 328 3 328 210 -328 209 -328 73 0 73 0 0 380 0 380 -50 0 -50 0 -2 -322 -3 -322 -205 322 -205 322 -72 0 -73 0 0 -380z" id="svg_42" fill="#ffffff" fill-opacity="1"/>
<path d="M5940 4050 l0 -380 285 0 285 0 0 45 0 45 -235 0 -235 0 0 130 0 130 225 0 225 0 0 45 0 45 -225 0 -225 0 0 115 0 115 235 0 235 0 0 45 0 45 -285 0 -285 0 0 -380z" id="svg_43" fill="#ffffff" fill-opacity="1"/>
<path d="M6890 4050 l0 -380 45 0 45 0 2 326 3 325 207 -323 206 -323 71 -3 71 -3 0 381 0 380 -45 0 -45 0 -2 -324 -3 -324 -206 321 -205 322 -72 3 -72 3 0 -381z" id="svg_44" fill="#ffffff" fill-opacity="1"/>
<path d="M7970 4050 l0 -380 50 0 50 0 0 175 0 175 225 0 225 0 0 -175 0 -175 45 0 45 0 0 380 0 380 -45 0 -45 0 0 -160 0 -160 -225 0 -225 0 0 160 0 160 -50 0 -50 0 0 -380z" id="svg_45" fill="#ffffff" fill-opacity="1"/>
<path d="M9239 4403 c-6 -16 -69 -179 -141 -363 -72 -184 -133 -343 -136 -352 -4 -15 3 -18 46 -18 l50 0 37 95 37 95 196 0 197 0 35 -92 35 -93 54 -3 c31 -2 52 1 50 7 -2 5 -69 176 -149 380 l-145 371 -78 0 c-75 0 -78 -1 -88 -27z m173 -255 l75 -193 -155 -3 c-85 -1 -157 -1 -159 1 -3 4 131 359 143 379 3 4 9 8 13 8 4 0 42 -87 83 -192z" id="svg_46" fill="#ffffff" fill-opacity="1"/>
<path d="M10040 4051 l0 -381 50 0 50 0 0 145 0 145 169 0 c165 0 171 -1 198 -24 27 -24 28 -27 31 -145 l4 -121 50 0 50 0 -4 141 -3 141 -32 29 -33 29 24 15 c36 24 46 65 46 184 0 123 -14 163 -70 196 -32 18 -55 20 -282 23 l-248 4 0 -381z m448 278 c42 -14 55 -52 51 -148 -5 -91 -15 -107 -75 -121 -21 -5 -103 -10 -181 -10 l-143 0 0 145 0 145 159 0 c87 0 172 -5 189 -11z" id="svg_47" fill="#ffffff" fill-opacity="1"/>
<path d="M11050 4050 l0 -380 50 0 50 0 0 380 0 380 -50 0 -50 0 0 -380z" id="svg_48" fill="#ffffff" fill-opacity="1"/>
<path d="M11640 4059 c-80 -204 -147 -376 -149 -381 -2 -5 20 -8 50 -6 l54 3 35 93 35 92 197 0 196 0 38 -95 37 -95 49 0 c26 0 48 4 48 9 0 5 -65 175 -144 377 l-145 369 -78 3 -78 3 -145 -372z m308 86 c40 -103 71 -189 69 -192 -2 -2 -74 -2 -160 -1 l-155 3 38 95 c20 52 54 139 75 193 21 56 42 96 49 94 6 -2 44 -88 84 -192z" id="svg_49" fill="#ffffff" fill-opacity="1"/>
<path d="M16890 4050 l0 -380 50 0 50 0 2 324 3 325 206 -322 205 -322 72 -3 72 -3 0 381 0 380 -50 0 -50 0 0 -322 0 -321 -206 321 -206 322 -74 0 -74 0 0 -380z" id="svg_50" fill="#ffffff" fill-opacity="1"/>
<path d="M18900 4385 l0 -45 125 0 125 0 0 -335 0 -335 50 0 50 0 0 335 0 335 125 0 125 0 0 45 0 45 -300 0 -300 0 0 -45z" id="svg_51" fill="#ffffff" fill-opacity="1"/>
<path d="M19820 4051 l0 -381 50 0 50 0 0 145 0 145 166 0 c99 0 173 -4 186 -11 34 -18 48 -70 48 -179 l0 -100 50 0 50 0 0 120 c0 129 -12 179 -49 202 -20 12 -20 13 12 46 l32 33 0 133 c0 147 -8 171 -68 203 -28 16 -66 18 -279 21 l-248 4 0 -381z m472 261 c19 -18 23 -36 26 -97 5 -84 -8 -129 -42 -147 -13 -7 -87 -14 -188 -16 l-168 -4 0 146 0 147 175 -3 c166 -3 176 -4 197 -26z" id="svg_52" fill="#ffffff" fill-opacity="1"/>
<path d="M20820 4150 c0 -325 6 -368 59 -422 51 -50 100 -62 266 -62 201 -1 259 22 302 119 15 35 18 82 21 343 l4 302 -51 0 -51 0 -1 -277 c0 -302 -4 -332 -52 -367 -26 -19 -42 -21 -175 -21 -164 0 -191 8 -211 67 -7 19 -11 138 -11 314 l0 284 -50 0 -50 0 0 -280z" id="svg_53" fill="#ffffff" fill-opacity="1"/>
<path d="M22942 4063 c-78 -203 -142 -374 -142 -380 0 -9 16 -13 48 -13 l47 0 35 93 35 92 199 0 198 0 35 -92 36 -93 49 0 c47 0 50 1 44 23 -3 12 -68 182 -145 377 l-139 355 -78 3 -79 3 -143 -368z m305 86 c40 -101 73 -187 73 -191 0 -5 -71 -8 -159 -8 l-159 0 76 195 c41 108 80 194 86 192 6 -2 43 -86 83 -188z" id="svg_54" fill="#ffffff" fill-opacity="1"/>
<path d="M13610 3099 c-56 -165 -101 -302 -99 -303 2 -2 165 -5 363 -7 l358 -4 98 285 c53 157 100 295 104 308 l7 22 -364 0 -364 0 -103 -301z" id="svg_55" fill="#ffffff" fill-opacity="1"/>
</g></g></svg>