<?xml version="1.0" encoding="utf-8"?>
<!-- Generator: Adobe Illustrator 16.0.0, SVG Export Plug-In . SVG Version: 6.00 Build 0)  -->
<!DOCTYPE svg PUBLIC "-//W3C//DTD SVG 1.1//EN" "http://www.w3.org/Graphics/SVG/1.1/DTD/svg11.dtd">
<svg version="1.1" id="Camada_1" xmlns="http://www.w3.org/2000/svg" xmlns:xlink="http://www.w3.org/1999/xlink" x="0px" y="0px"
	 width="134px" height="48.256px" viewBox="0 0 134 48.256" enable-background="new 0 0 134 48.256" xml:space="preserve">
<path fill-rule="evenodd" clip-rule="evenodd" fill="#FFFFFF" d="M90.735,7.42l-3.746,7.067c-6.303-0.921-40.908-1.9-57.266,0.152
	c-3.459,9.214-5.095,18.979-3.903,27.518l-5.186-1.861l-2.338-0.828c0.007-4.626,2.464-13.739,8.747-24.476
	C15.382,16.6,5.742,18.926,4.298,21.878c-0.576,1.178,1.105,2.686,8.893,4.339c-22.116-4.178-5.497-10.925,16.563-15.582
	c0.071-0.106,0.14-0.214,0.212-0.321l-0.001,0.002c1.519-2.283,3.158-4.526,4.904-6.673c-1.212,2.136-2.333,4.354-3.349,6.626
	C48.272,6.86,82.916,6.365,90.735,7.42"/>
<path fill="#FFFFFF" d="M113.176,34.746h-3.23v-7.642h3.23V34.746z M118.46,34.746h-3.412v-7.67c0-0.757-0.124-1.271-0.374-1.539
	c-0.314-0.342-0.939-0.514-1.872-0.514h-4.883v9.723h-3.466V22.195h10.317c1.23,0,2.164,0.268,2.803,0.804
	c0.591,0.502,0.887,1.184,0.887,2.041V34.746z M103.855,34.746H91.832l2.358-7.642h3.244l-1.372,4.604h3.301l-3.523-9.514h3.578
	L103.855,34.746z M85.399,35.561l4.559-13.365h3.273l-4.553,13.365H85.399z M86.22,42.78l-3.273-0.025l0.938-2.748h3.28L86.22,42.78
	z M82.373,34.746H70.35l2.356-7.642h3.245l-1.372,4.604h3.3l-3.522-9.514h3.577L82.373,34.746z M69.835,25.232
	c0,0.721-0.138,1.321-0.415,1.804c-0.315,0.535-0.925,1.03-1.831,1.482c0.712,0.462,1.174,0.869,1.387,1.22
	c0.286,0.474,0.43,1.212,0.43,2.221v2.787h-3.301v-2.761c0-0.666-0.168-1.189-0.506-1.572c-0.337-0.386-0.82-0.576-1.449-0.576
	h-3.467v-2.761h3.384h0.319c0.526,0,0.905-0.04,1.138-0.125c0.388-0.138,0.581-0.411,0.581-0.818c0-0.462-0.212-0.775-0.637-0.942
	c-0.277-0.111-0.726-0.167-1.346-0.167h-3.468v-2.787h3.495c2.172,0,3.73,0.347,4.673,1.039
	C69.498,23.775,69.835,24.427,69.835,25.232z M60.085,34.718h-6.573c-1.22,0-2.149-0.269-2.788-0.804
	c-0.6-0.499-0.901-1.18-0.901-2.039v-9.639h3.44v7.601c0,0.766,0.12,1.284,0.36,1.553c0.306,0.342,0.925,0.514,1.86,0.514h1.137
	v-9.667h3.466V34.718z M43.804,34.746h-3.23v-7.642h3.23V34.746z M49.088,34.746h-3.413v-7.67c0-0.757-0.125-1.271-0.375-1.539
	c-0.314-0.342-0.938-0.514-1.872-0.514h-4.881v9.723h-3.467V22.195h10.318c1.23,0,2.164,0.268,2.801,0.804
	c0.592,0.502,0.889,1.182,0.889,2.041V34.746z M86.998,30.181l-3.424-0.003l-2.964-7.982h3.578L86.998,30.181z M35.491,4.266
	l1.175,1.285c-0.646,1.624-1.286,3.244-1.901,4.856c-0.914,0.155-1.791,0.316-2.623,0.485C33.159,8.621,34.279,6.402,35.491,4.266z
	 M27.394,16.087c-12.397,1.621-32.338,6.054-13.258,9.598l-0.321,1.156c-7.787-1.654-9.469-3.161-8.893-4.339
	c1.445-2.952,11.083-5.278,22.746-6.886C27.575,15.774,27.483,15.93,27.394,16.087z M91.106,18.062
	c-12.779-1.995-46.026-3.445-58.193-2.548c-3.191,9.394-4.797,18.358-0.862,26.092l-5.607,1.175
	c-1.192-8.538,0.443-18.304,3.903-27.518c16.358-2.052,50.963-1.072,57.265-0.152l3.747-7.066l2.957,3.582L91.106,18.062z
	 M131.247,34.746h-12.023l2.357-7.642h3.245l-1.374,4.604h3.301l-3.522-9.514h3.579L131.247,34.746z"/>
<g>
	<path fill="#FFFFFF" d="M35.262,39.461v-3.333h2.463v0.354h-2.076v1.09h2.017v0.341h-2.017v1.199h2.076v0.35H35.262z"/>
	<path fill="#FFFFFF" d="M39.461,39.461v-3.333h0.599l1.903,2.975v-2.975h0.387v3.333h-0.599l-1.903-2.979v2.979H39.461z"/>
	<path fill="#FFFFFF" d="M44.18,37.229c0-0.426,0.093-0.722,0.278-0.89s0.515-0.252,0.986-0.252h0.445
		c0.433,0,0.752,0.069,0.957,0.209s0.308,0.357,0.308,0.652v0.142h-0.401V37.05c0-0.229-0.061-0.39-0.184-0.479
		c-0.123-0.091-0.356-0.136-0.703-0.136h-0.309c-0.24,0-0.414,0.013-0.519,0.038c-0.105,0.025-0.195,0.068-0.27,0.128
		c-0.067,0.055-0.115,0.129-0.143,0.222c-0.027,0.092-0.041,0.259-0.041,0.499v0.949c0,0.238,0.014,0.404,0.041,0.496
		c0.027,0.093,0.075,0.167,0.143,0.222c0.074,0.061,0.162,0.103,0.265,0.128c0.102,0.025,0.276,0.038,0.523,0.038h0.309
		c0.224,0,0.382-0.011,0.475-0.033s0.173-0.061,0.24-0.114c0.063-0.051,0.107-0.12,0.134-0.208c0.025-0.089,0.038-0.239,0.038-0.452
		v-0.206h-0.974v-0.338h1.375v0.557c0,0.427-0.093,0.724-0.278,0.892c-0.186,0.167-0.514,0.25-0.986,0.25h-0.445
		c-0.472,0-0.801-0.083-0.986-0.25c-0.186-0.168-0.278-0.465-0.278-0.892V37.229z"/>
	<path fill="#FFFFFF" d="M48.971,39.461v-3.333h2.463v0.354h-2.076v1.09h2.017v0.341h-2.017v1.199h2.076v0.35H48.971z"/>
	<path fill="#FFFFFF" d="M53.17,39.461v-3.333h0.599l1.903,2.975v-2.975h0.387v3.333H55.46l-1.903-2.979v2.979H53.17z"/>
	<path fill="#FFFFFF" d="M58.024,39.461v-3.333h0.387v1.439h2.023v-1.439h0.387v3.333h-0.387v-1.545h-2.023v1.545H58.024z"/>
	<path fill="#FFFFFF" d="M62.412,39.461l1.297-3.333h0.64l1.304,3.333h-0.4l-0.335-0.853h-1.776l-0.328,0.853H62.412z
		 M63.271,38.279h1.521l-0.701-1.798h-0.125L63.271,38.279z"/>
	<path fill="#FFFFFF" d="M67.235,39.461v-3.333h1.585c0.395,0,0.666,0.056,0.814,0.167c0.149,0.111,0.224,0.31,0.224,0.594v0.504
		c0,0.175-0.038,0.312-0.112,0.411c-0.075,0.099-0.188,0.161-0.341,0.187c0.167,0.037,0.284,0.105,0.352,0.204
		s0.102,0.253,0.102,0.465v0.802h-0.406v-0.688c0-0.238-0.04-0.4-0.119-0.484s-0.234-0.126-0.466-0.126h-1.245v1.298H67.235z
		 M68.742,36.481h-1.12v1.334h1.12c0.293,0,0.484-0.034,0.574-0.103c0.091-0.068,0.136-0.191,0.136-0.369v-0.39
		c0-0.181-0.044-0.305-0.131-0.372C69.234,36.516,69.041,36.481,68.742,36.481z"/>
	<path fill="#FFFFFF" d="M71.724,39.461v-3.333h0.392v3.333H71.724z"/>
	<path fill="#FFFFFF" d="M73.706,39.461l1.297-3.333h0.64l1.304,3.333h-0.4l-0.335-0.853h-1.776l-0.328,0.853H73.706z
		 M74.564,38.279h1.521l-0.701-1.798H75.26L74.564,38.279z"/>
	<path fill="#FFFFFF" d="M83.697,39.049c-0.08,0.17-0.211,0.289-0.392,0.356c-0.181,0.066-0.499,0.101-0.955,0.101
		c-0.324,0-0.559-0.021-0.703-0.063c-0.145-0.043-0.264-0.116-0.356-0.219c-0.062-0.07-0.106-0.168-0.135-0.293
		c-0.028-0.126-0.042-0.297-0.042-0.515c0-0.284,0.049-0.494,0.146-0.632c0.098-0.137,0.259-0.228,0.485-0.271
		c-0.109-0.073-0.191-0.168-0.244-0.283s-0.079-0.257-0.079-0.424c0-0.269,0.074-0.456,0.222-0.562
		c0.148-0.104,0.424-0.157,0.826-0.157c0.379,0,0.65,0.057,0.815,0.17c0.166,0.113,0.248,0.299,0.248,0.558v0.279h-0.392V36.84
		c0-0.16-0.035-0.268-0.106-0.322c-0.07-0.056-0.259-0.083-0.565-0.083c-0.294,0-0.475,0.024-0.542,0.074
		c-0.066,0.049-0.1,0.148-0.1,0.298c0,0.212,0.109,0.404,0.33,0.579c0.011,0.009,0.021,0.017,0.028,0.022l1.265,1.003v-0.463h0.391
		v0.49c0,0.032-0.002,0.07-0.007,0.113c-0.005,0.044-0.013,0.093-0.023,0.148l0.663,0.523l-0.227,0.26L83.697,39.049z
		 M83.379,38.792l-1.293-1.025c-0.214,0.003-0.362,0.052-0.445,0.146c-0.084,0.095-0.125,0.274-0.125,0.538
		c0,0.187,0.01,0.319,0.031,0.398s0.057,0.139,0.107,0.18c0.055,0.046,0.142,0.078,0.261,0.097c0.118,0.019,0.333,0.028,0.643,0.028
		c0.257,0,0.448-0.028,0.575-0.085C83.261,39.013,83.343,38.92,83.379,38.792z"/>
	<path fill="#FFFFFF" d="M88.527,37.229c0-0.427,0.086-0.724,0.259-0.891c0.172-0.168,0.476-0.251,0.911-0.251h0.411
		c0.432,0,0.735,0.072,0.91,0.216c0.175,0.145,0.262,0.389,0.262,0.733v0.146h-0.401v-0.092c0-0.253-0.054-0.425-0.162-0.518
		c-0.108-0.092-0.321-0.139-0.637-0.139h-0.271c-0.213,0-0.367,0.013-0.464,0.037s-0.177,0.066-0.241,0.124
		c-0.064,0.057-0.11,0.131-0.136,0.223c-0.026,0.092-0.039,0.26-0.039,0.503v0.949c0,0.241,0.013,0.408,0.039,0.5
		c0.025,0.092,0.071,0.166,0.136,0.223c0.064,0.059,0.143,0.1,0.234,0.124s0.249,0.037,0.471,0.037h0.271
		c0.323,0,0.539-0.049,0.646-0.146c0.107-0.097,0.161-0.283,0.161-0.558c0-0.041-0.001-0.073-0.002-0.096
		c0-0.022-0.002-0.044-0.003-0.063h0.398v0.219c0,0.37-0.085,0.628-0.254,0.772s-0.475,0.217-0.918,0.217h-0.411
		c-0.436,0-0.739-0.083-0.911-0.25c-0.173-0.168-0.259-0.465-0.259-0.892V37.229z"/>
	<path fill="#FFFFFF" d="M92.938,37.229c0-0.426,0.093-0.722,0.278-0.89s0.516-0.252,0.988-0.252h0.443
		c0.479,0,0.809,0.083,0.992,0.248c0.184,0.166,0.274,0.464,0.274,0.894v1.13c0,0.427-0.093,0.724-0.279,0.892
		c-0.187,0.167-0.516,0.25-0.987,0.25h-0.443c-0.473,0-0.803-0.083-0.988-0.25c-0.186-0.168-0.278-0.465-0.278-0.892V37.229z
		 M94.533,36.435h-0.217c-0.247,0-0.422,0.013-0.523,0.038c-0.103,0.025-0.19,0.068-0.265,0.128
		c-0.069,0.057-0.118,0.133-0.146,0.229c-0.028,0.096-0.042,0.261-0.042,0.495v0.945c0,0.232,0.014,0.396,0.042,0.491
		s0.077,0.17,0.146,0.227c0.074,0.061,0.162,0.103,0.265,0.128c0.102,0.025,0.276,0.038,0.523,0.038h0.217
		c0.247,0,0.422-0.013,0.526-0.038c0.104-0.025,0.192-0.067,0.267-0.128c0.067-0.055,0.114-0.129,0.143-0.222
		c0.027-0.092,0.041-0.258,0.041-0.496v-0.949c0-0.234-0.015-0.399-0.043-0.496c-0.028-0.096-0.076-0.173-0.146-0.229
		c-0.072-0.058-0.16-0.1-0.262-0.124C94.957,36.447,94.781,36.435,94.533,36.435z"/>
	<path fill="#FFFFFF" d="M97.761,39.461v-3.333h0.599l1.903,2.975v-2.975h0.388v3.333h-0.6l-1.903-2.979v2.979H97.761z"/>
	<path fill="#FFFFFF" d="M102.518,38.375h0.392v0.063c0,0.198,0.016,0.345,0.047,0.438s0.083,0.16,0.155,0.199
		c0.057,0.029,0.145,0.051,0.262,0.063c0.118,0.013,0.361,0.02,0.729,0.02c0.199,0,0.354-0.013,0.465-0.037
		c0.109-0.024,0.191-0.064,0.245-0.12c0.029-0.029,0.052-0.08,0.065-0.152c0.015-0.071,0.021-0.168,0.021-0.291
		c0-0.247-0.026-0.403-0.079-0.467s-0.156-0.101-0.313-0.112l-1.082-0.081c-0.324-0.023-0.549-0.101-0.673-0.23
		s-0.187-0.349-0.187-0.656c0-0.193,0.021-0.35,0.062-0.468c0.041-0.117,0.107-0.215,0.198-0.293c0.071-0.06,0.17-0.102,0.297-0.126
		c0.128-0.025,0.353-0.037,0.675-0.037h0.125c0.36,0,0.614,0.017,0.761,0.049c0.147,0.033,0.271,0.09,0.369,0.17
		c0.067,0.054,0.118,0.131,0.15,0.229c0.032,0.1,0.048,0.223,0.048,0.371c0,0.043,0,0.076-0.001,0.1
		c-0.001,0.022-0.002,0.043-0.004,0.062h-0.392v-0.083c0-0.122-0.007-0.216-0.022-0.281c-0.015-0.064-0.038-0.112-0.071-0.145
		c-0.049-0.046-0.136-0.078-0.261-0.097s-0.362-0.028-0.711-0.028c-0.362,0-0.589,0.039-0.682,0.116
		c-0.093,0.078-0.14,0.233-0.14,0.466c0,0.191,0.03,0.323,0.091,0.396s0.178,0.115,0.351,0.128l1.104,0.088
		c0.289,0.023,0.492,0.1,0.608,0.227c0.116,0.128,0.175,0.341,0.175,0.64c0,0.218-0.015,0.382-0.045,0.491s-0.079,0.201-0.148,0.274
		c-0.085,0.091-0.199,0.154-0.343,0.191c-0.145,0.036-0.406,0.055-0.787,0.055h-0.175c-0.323,0-0.553-0.016-0.688-0.047
		c-0.134-0.031-0.246-0.086-0.336-0.164c-0.088-0.071-0.153-0.168-0.194-0.291c-0.042-0.122-0.063-0.277-0.063-0.465V38.375z"/>
	<path fill="#FFFFFF" d="M106.69,36.481v-0.354h2.631v0.354h-1.123v2.979h-0.39v-2.979H106.69z"/>
	<path fill="#FFFFFF" d="M110.802,39.461v-3.333h1.585c0.395,0,0.666,0.056,0.814,0.167c0.149,0.111,0.224,0.31,0.224,0.594v0.504
		c0,0.175-0.038,0.312-0.112,0.411c-0.075,0.099-0.188,0.161-0.341,0.187c0.167,0.037,0.284,0.105,0.352,0.204
		s0.102,0.253,0.102,0.465v0.802h-0.406v-0.688c0-0.238-0.04-0.4-0.119-0.484s-0.234-0.126-0.466-0.126h-1.245v1.298H110.802z
		 M112.309,36.481h-1.12v1.334h1.12c0.293,0,0.484-0.034,0.574-0.103c0.091-0.068,0.136-0.191,0.136-0.369v-0.39
		c0-0.181-0.044-0.305-0.131-0.372C112.801,36.516,112.607,36.481,112.309,36.481z"/>
	<path fill="#FFFFFF" d="M115.258,36.128h0.392v2.187c0,0.215,0.012,0.365,0.036,0.45s0.066,0.154,0.127,0.206
		c0.063,0.054,0.138,0.092,0.225,0.113c0.088,0.021,0.238,0.032,0.452,0.032h0.368c0.215,0,0.367-0.011,0.455-0.032
		s0.163-0.06,0.227-0.113c0.058-0.051,0.099-0.118,0.122-0.204c0.023-0.085,0.035-0.235,0.035-0.452v-2.187h0.392v2.231
		c0,0.426-0.088,0.722-0.265,0.89c-0.178,0.168-0.49,0.252-0.938,0.252h-0.425c-0.448,0-0.761-0.084-0.938-0.252
		s-0.266-0.464-0.266-0.89V36.128z"/>
	<path fill="#FFFFFF" d="M119.904,37.229c0-0.427,0.086-0.724,0.259-0.891c0.172-0.168,0.476-0.251,0.911-0.251h0.411
		c0.432,0,0.735,0.072,0.91,0.216c0.175,0.145,0.262,0.389,0.262,0.733v0.146h-0.401v-0.092c0-0.253-0.054-0.425-0.162-0.518
		c-0.108-0.092-0.321-0.139-0.637-0.139h-0.271c-0.213,0-0.367,0.013-0.464,0.037s-0.177,0.066-0.241,0.124
		c-0.064,0.057-0.11,0.131-0.136,0.223c-0.026,0.092-0.039,0.26-0.039,0.503v0.949c0,0.241,0.013,0.408,0.039,0.5
		c0.025,0.092,0.071,0.166,0.136,0.223c0.064,0.059,0.143,0.1,0.234,0.124s0.249,0.037,0.471,0.037h0.271
		c0.323,0,0.539-0.049,0.646-0.146c0.107-0.097,0.161-0.283,0.161-0.558c0-0.041-0.001-0.073-0.002-0.096
		c0-0.022-0.002-0.044-0.003-0.063h0.398v0.219c0,0.37-0.085,0.628-0.254,0.772s-0.475,0.217-0.918,0.217h-0.411
		c-0.436,0-0.739-0.083-0.911-0.25c-0.173-0.168-0.259-0.465-0.259-0.892V37.229z M121.324,39.461v0.258h0.151
		c0.149,0,0.246,0.02,0.29,0.06c0.044,0.041,0.066,0.143,0.066,0.307c0,0.181-0.021,0.293-0.063,0.337
		c-0.042,0.044-0.139,0.066-0.289,0.066h-0.623v-0.197h0.503c0.083,0,0.134-0.01,0.152-0.031c0.02-0.021,0.028-0.083,0.028-0.186
		c0-0.091-0.008-0.147-0.024-0.169s-0.07-0.032-0.161-0.032h-0.185v-0.412H121.324z"/>
	<path fill="#FFFFFF" d="M124.056,39.461l1.297-3.333h0.64l1.304,3.333h-0.4l-0.335-0.853h-1.776l-0.328,0.853H124.056z
		 M124.914,38.279h1.521l-0.701-1.798h-0.125L124.914,38.279z M126.355,35.253c-0.041,0.134-0.1,0.235-0.175,0.302
		c-0.076,0.067-0.168,0.101-0.276,0.101c-0.021,0-0.046-0.001-0.071-0.005c-0.026-0.004-0.055-0.01-0.084-0.017l-0.225-0.063
		c-0.028-0.009-0.052-0.015-0.07-0.019s-0.038-0.006-0.057-0.006c-0.044,0-0.085,0.015-0.123,0.043
		c-0.037,0.028-0.069,0.067-0.094,0.118h-0.189c0.035-0.13,0.092-0.229,0.17-0.299c0.079-0.069,0.176-0.104,0.29-0.104
		c0.025,0,0.049,0.001,0.068,0.004c0.021,0.003,0.04,0.008,0.057,0.014l0.229,0.069c0.019,0.006,0.04,0.011,0.063,0.016
		s0.046,0.007,0.066,0.007c0.053,0,0.099-0.013,0.135-0.039c0.037-0.026,0.067-0.067,0.091-0.122H126.355z"/>
	<path fill="#FFFFFF" d="M128.769,37.229c0-0.426,0.093-0.722,0.278-0.89s0.516-0.252,0.988-0.252h0.443
		c0.479,0,0.809,0.083,0.992,0.248c0.184,0.166,0.274,0.464,0.274,0.894v1.13c0,0.427-0.093,0.724-0.279,0.892
		c-0.187,0.167-0.516,0.25-0.987,0.25h-0.443c-0.473,0-0.803-0.083-0.988-0.25c-0.186-0.168-0.278-0.465-0.278-0.892V37.229z
		 M130.363,36.435h-0.217c-0.247,0-0.422,0.013-0.523,0.038c-0.103,0.025-0.19,0.068-0.265,0.128
		c-0.069,0.057-0.118,0.133-0.146,0.229c-0.028,0.096-0.042,0.261-0.042,0.495v0.945c0,0.232,0.014,0.396,0.042,0.491
		s0.077,0.17,0.146,0.227c0.074,0.061,0.162,0.103,0.265,0.128c0.102,0.025,0.276,0.038,0.523,0.038h0.217
		c0.247,0,0.422-0.013,0.526-0.038c0.104-0.025,0.192-0.067,0.267-0.128c0.067-0.055,0.114-0.129,0.143-0.222
		c0.027-0.092,0.041-0.258,0.041-0.496v-0.949c0-0.234-0.015-0.399-0.043-0.496c-0.028-0.096-0.076-0.173-0.146-0.229
		c-0.072-0.058-0.16-0.1-0.262-0.124C130.787,36.447,130.611,36.435,130.363,36.435z"/>
</g>
</svg>
